<mxfile host="app.diagrams.net" modified="2022-03-29T13:01:53.848Z" agent="5.0 (Windows NT 10.0; Win64; x64) AppleWebKit/537.36 (KHTML, like Gecko) Chrome/99.0.4844.82 Safari/537.36" etag="_suoXfNHp8WXz5OlIaWN" version="17.2.4" type="github">
  <diagram id="mNHv7Xfd733gg4z5NXrI" name="Page-1">
    <mxGraphModel dx="782" dy="468" grid="1" gridSize="10" guides="1" tooltips="1" connect="1" arrows="1" fold="1" page="1" pageScale="1" pageWidth="827" pageHeight="1169" math="0" shadow="0">
      <root>
        <mxCell id="0" />
        <mxCell id="1" parent="0" />
        <mxCell id="dx0S541zMWtDR5DZHpLY-1" value="INICIO" style="ellipse;whiteSpace=wrap;html=1;" parent="1" vertex="1">
          <mxGeometry x="354" y="50" width="120" height="80" as="geometry" />
        </mxCell>
        <mxCell id="dx0S541zMWtDR5DZHpLY-5" value="" style="endArrow=classic;html=1;rounded=0;exitX=0.5;exitY=1;exitDx=0;exitDy=0;" parent="1" source="dx0S541zMWtDR5DZHpLY-1" edge="1">
          <mxGeometry width="50" height="50" relative="1" as="geometry">
            <mxPoint x="380" y="260" as="sourcePoint" />
            <mxPoint x="414" y="170" as="targetPoint" />
          </mxGeometry>
        </mxCell>
        <mxCell id="dx0S541zMWtDR5DZHpLY-7" value="" style="endArrow=classic;html=1;rounded=0;exitX=0.5;exitY=1;exitDx=0;exitDy=0;" parent="1" source="dx0S541zMWtDR5DZHpLY-1" edge="1">
          <mxGeometry width="50" height="50" relative="1" as="geometry">
            <mxPoint x="414" y="130" as="sourcePoint" />
            <mxPoint x="414" y="170" as="targetPoint" />
            <Array as="points" />
          </mxGeometry>
        </mxCell>
        <mxCell id="dx0S541zMWtDR5DZHpLY-16" value="FIM" style="ellipse;whiteSpace=wrap;html=1;" parent="1" vertex="1">
          <mxGeometry x="195.5" y="760" width="120" height="80" as="geometry" />
        </mxCell>
        <mxCell id="eqXWto3Xr35kj9CV83Ef-1" value="LER = A" style="rounded=0;whiteSpace=wrap;html=1;" parent="1" vertex="1">
          <mxGeometry x="354" y="170" width="120" height="60" as="geometry" />
        </mxCell>
        <mxCell id="eqXWto3Xr35kj9CV83Ef-2" value="" style="endArrow=classic;html=1;rounded=0;exitX=0.5;exitY=1;exitDx=0;exitDy=0;" parent="1" edge="1">
          <mxGeometry width="50" height="50" relative="1" as="geometry">
            <mxPoint x="414" y="230" as="sourcePoint" />
            <mxPoint x="414" y="270" as="targetPoint" />
            <Array as="points" />
          </mxGeometry>
        </mxCell>
        <mxCell id="N103GahGHHadDwq9YLp3-1" value="CHECAR = &lt;br&gt;A % 2 = 0" style="rhombus;whiteSpace=wrap;html=1;" parent="1" vertex="1">
          <mxGeometry x="348" y="270" width="131" height="131" as="geometry" />
        </mxCell>
        <mxCell id="N103GahGHHadDwq9YLp3-3" value="" style="endArrow=classic;html=1;rounded=0;exitX=0;exitY=0.5;exitDx=0;exitDy=0;entryX=0.5;entryY=0;entryDx=0;entryDy=0;" parent="1" source="N103GahGHHadDwq9YLp3-1" target="eWo_KJt5pI8NYzRUAlLy-11" edge="1">
          <mxGeometry width="50" height="50" relative="1" as="geometry">
            <mxPoint x="414" y="401" as="sourcePoint" />
            <mxPoint x="230" y="370" as="targetPoint" />
            <Array as="points">
              <mxPoint x="256" y="336" />
            </Array>
          </mxGeometry>
        </mxCell>
        <mxCell id="N103GahGHHadDwq9YLp3-9" value="True" style="text;html=1;align=center;verticalAlign=middle;resizable=0;points=[];autosize=1;strokeColor=none;fillColor=none;" parent="1" vertex="1">
          <mxGeometry x="300" y="310" width="40" height="20" as="geometry" />
        </mxCell>
        <mxCell id="N103GahGHHadDwq9YLp3-10" value="False" style="text;html=1;align=center;verticalAlign=middle;resizable=0;points=[];autosize=1;strokeColor=none;fillColor=none;" parent="1" vertex="1">
          <mxGeometry x="490" y="310" width="40" height="20" as="geometry" />
        </mxCell>
        <mxCell id="eWo_KJt5pI8NYzRUAlLy-1" value="CHECAR = &lt;br&gt;B % 2 = 0" style="rhombus;whiteSpace=wrap;html=1;" parent="1" vertex="1">
          <mxGeometry x="459" y="540" width="131" height="131" as="geometry" />
        </mxCell>
        <mxCell id="eWo_KJt5pI8NYzRUAlLy-2" value="" style="endArrow=classic;html=1;rounded=0;entryX=0.5;entryY=0;entryDx=0;entryDy=0;exitX=1;exitY=0.5;exitDx=0;exitDy=0;" parent="1" source="N103GahGHHadDwq9YLp3-1" target="eWo_KJt5pI8NYzRUAlLy-1" edge="1">
          <mxGeometry width="50" height="50" relative="1" as="geometry">
            <mxPoint x="380" y="550" as="sourcePoint" />
            <mxPoint x="430" y="500" as="targetPoint" />
            <Array as="points">
              <mxPoint x="525" y="336" />
            </Array>
          </mxGeometry>
        </mxCell>
        <mxCell id="eWo_KJt5pI8NYzRUAlLy-6" value="True" style="text;html=1;align=center;verticalAlign=middle;resizable=0;points=[];autosize=1;strokeColor=none;fillColor=none;" parent="1" vertex="1">
          <mxGeometry x="260" y="500" width="40" height="20" as="geometry" />
        </mxCell>
        <mxCell id="eWo_KJt5pI8NYzRUAlLy-7" value="False" style="text;html=1;align=center;verticalAlign=middle;resizable=0;points=[];autosize=1;strokeColor=none;fillColor=none;" parent="1" vertex="1">
          <mxGeometry x="479" y="680" width="40" height="20" as="geometry" />
        </mxCell>
        <mxCell id="eWo_KJt5pI8NYzRUAlLy-9" value="" style="endArrow=classic;html=1;rounded=0;exitX=0.5;exitY=1;exitDx=0;exitDy=0;entryX=0.5;entryY=0;entryDx=0;entryDy=0;" parent="1" source="eWo_KJt5pI8NYzRUAlLy-11" target="gIN3R-5Y_ZNvCQK5J2Hd-3" edge="1">
          <mxGeometry width="50" height="50" relative="1" as="geometry">
            <mxPoint x="380" y="770" as="sourcePoint" />
            <mxPoint x="230" y="640" as="targetPoint" />
            <Array as="points" />
          </mxGeometry>
        </mxCell>
        <mxCell id="eWo_KJt5pI8NYzRUAlLy-11" value="CHECAR = &lt;br&gt;B % 2 = 0" style="rhombus;whiteSpace=wrap;html=1;" parent="1" vertex="1">
          <mxGeometry x="190" y="369" width="131" height="131" as="geometry" />
        </mxCell>
        <mxCell id="eWo_KJt5pI8NYzRUAlLy-14" value="True" style="text;html=1;align=center;verticalAlign=middle;resizable=0;points=[];autosize=1;strokeColor=none;fillColor=none;" parent="1" vertex="1">
          <mxGeometry x="590" y="585" width="40" height="20" as="geometry" />
        </mxCell>
        <mxCell id="eWo_KJt5pI8NYzRUAlLy-17" value="" style="endArrow=classic;html=1;rounded=0;exitX=0;exitY=0.5;exitDx=0;exitDy=0;entryX=0.5;entryY=0;entryDx=0;entryDy=0;" parent="1" source="eWo_KJt5pI8NYzRUAlLy-11" edge="1" target="gIN3R-5Y_ZNvCQK5J2Hd-1">
          <mxGeometry width="50" height="50" relative="1" as="geometry">
            <mxPoint x="380" y="730" as="sourcePoint" />
            <mxPoint x="420" y="780" as="targetPoint" />
            <Array as="points">
              <mxPoint x="120" y="435" />
            </Array>
          </mxGeometry>
        </mxCell>
        <mxCell id="eWo_KJt5pI8NYzRUAlLy-18" value="False" style="text;html=1;align=center;verticalAlign=middle;resizable=0;points=[];autosize=1;strokeColor=none;fillColor=none;" parent="1" vertex="1">
          <mxGeometry x="150" y="410" width="40" height="20" as="geometry" />
        </mxCell>
        <mxCell id="gIN3R-5Y_ZNvCQK5J2Hd-1" value="&lt;span&gt;A é par&lt;/span&gt;" style="shape=document;whiteSpace=wrap;html=1;boundedLbl=1;" vertex="1" parent="1">
          <mxGeometry x="60" y="480" width="120" height="60" as="geometry" />
        </mxCell>
        <mxCell id="gIN3R-5Y_ZNvCQK5J2Hd-3" value="&lt;span&gt;A e B são pares&lt;/span&gt;" style="shape=document;whiteSpace=wrap;html=1;boundedLbl=1;" vertex="1" parent="1">
          <mxGeometry x="195.5" y="640" width="120" height="60" as="geometry" />
        </mxCell>
        <mxCell id="gIN3R-5Y_ZNvCQK5J2Hd-4" value="FIM" style="ellipse;whiteSpace=wrap;html=1;" vertex="1" parent="1">
          <mxGeometry x="60" y="565.5" width="120" height="80" as="geometry" />
        </mxCell>
        <mxCell id="gIN3R-5Y_ZNvCQK5J2Hd-5" value="" style="endArrow=classic;html=1;rounded=0;exitX=0.5;exitY=0.889;exitDx=0;exitDy=0;exitPerimeter=0;" edge="1" parent="1" source="gIN3R-5Y_ZNvCQK5J2Hd-1" target="gIN3R-5Y_ZNvCQK5J2Hd-4">
          <mxGeometry width="50" height="50" relative="1" as="geometry">
            <mxPoint x="380" y="670" as="sourcePoint" />
            <mxPoint x="430" y="620" as="targetPoint" />
          </mxGeometry>
        </mxCell>
        <mxCell id="gIN3R-5Y_ZNvCQK5J2Hd-6" value="" style="endArrow=classic;html=1;rounded=0;exitX=0.488;exitY=0.922;exitDx=0;exitDy=0;exitPerimeter=0;entryX=0.5;entryY=0;entryDx=0;entryDy=0;" edge="1" parent="1" source="gIN3R-5Y_ZNvCQK5J2Hd-3" target="dx0S541zMWtDR5DZHpLY-16">
          <mxGeometry width="50" height="50" relative="1" as="geometry">
            <mxPoint x="380" y="670" as="sourcePoint" />
            <mxPoint x="430" y="620" as="targetPoint" />
          </mxGeometry>
        </mxCell>
        <mxCell id="gIN3R-5Y_ZNvCQK5J2Hd-7" value="&lt;span&gt;B é par&lt;/span&gt;" style="shape=document;whiteSpace=wrap;html=1;boundedLbl=1;" vertex="1" parent="1">
          <mxGeometry x="600" y="680" width="120" height="60" as="geometry" />
        </mxCell>
        <mxCell id="gIN3R-5Y_ZNvCQK5J2Hd-8" value="" style="endArrow=classic;html=1;rounded=0;exitX=1;exitY=0.5;exitDx=0;exitDy=0;entryX=0.5;entryY=0;entryDx=0;entryDy=0;" edge="1" parent="1" source="eWo_KJt5pI8NYzRUAlLy-1" target="gIN3R-5Y_ZNvCQK5J2Hd-7">
          <mxGeometry width="50" height="50" relative="1" as="geometry">
            <mxPoint x="380" y="570" as="sourcePoint" />
            <mxPoint x="430" y="520" as="targetPoint" />
            <Array as="points">
              <mxPoint x="660" y="606" />
            </Array>
          </mxGeometry>
        </mxCell>
        <mxCell id="gIN3R-5Y_ZNvCQK5J2Hd-9" value="" style="endArrow=classic;html=1;rounded=0;exitX=0.5;exitY=1;exitDx=0;exitDy=0;entryX=0.5;entryY=0;entryDx=0;entryDy=0;" edge="1" parent="1" source="eWo_KJt5pI8NYzRUAlLy-1" target="gIN3R-5Y_ZNvCQK5J2Hd-10">
          <mxGeometry width="50" height="50" relative="1" as="geometry">
            <mxPoint x="380" y="670" as="sourcePoint" />
            <mxPoint x="525" y="750" as="targetPoint" />
          </mxGeometry>
        </mxCell>
        <mxCell id="gIN3R-5Y_ZNvCQK5J2Hd-10" value="FIM" style="ellipse;whiteSpace=wrap;html=1;" vertex="1" parent="1">
          <mxGeometry x="464.5" y="760" width="120" height="80" as="geometry" />
        </mxCell>
        <mxCell id="gIN3R-5Y_ZNvCQK5J2Hd-11" value="FIM" style="ellipse;whiteSpace=wrap;html=1;" vertex="1" parent="1">
          <mxGeometry x="600" y="790" width="120" height="80" as="geometry" />
        </mxCell>
        <mxCell id="gIN3R-5Y_ZNvCQK5J2Hd-13" value="" style="endArrow=classic;html=1;rounded=0;" edge="1" parent="1" source="gIN3R-5Y_ZNvCQK5J2Hd-7" target="gIN3R-5Y_ZNvCQK5J2Hd-11">
          <mxGeometry width="50" height="50" relative="1" as="geometry">
            <mxPoint x="534.5" y="681" as="sourcePoint" />
            <mxPoint x="534.5" y="770" as="targetPoint" />
          </mxGeometry>
        </mxCell>
      </root>
    </mxGraphModel>
  </diagram>
</mxfile>
